<?xml version="1.0" encoding="utf-8"?>
<!-- Generator: Adobe Illustrator 23.0.1, SVG Export Plug-In . SVG Version: 6.00 Build 0)  -->
<svg version="1.1" id="Layer_1" xmlns="http://www.w3.org/2000/svg" xmlns:xlink="http://www.w3.org/1999/xlink" x="0px" y="0px"
	 viewBox="0 0 100 100" style="enable-background:new 0 0 100 100;" xml:space="preserve">
<style type="text/css">
	.st0{fill:url(#SVGID_1_);}
	.st1{fill:url(#SVGID_2_);}
</style>
<g>
	<linearGradient id="SVGID_1_" gradientUnits="userSpaceOnUse" x1="46.2735" y1="58.5714" x2="46.2735" y2="47.2329">
		<stop  offset="0" style="stop-color:#009245"/>
		<stop  offset="1" style="stop-color:#39B54A"/>
	</linearGradient>
	<path class="st0" d="M54.23,50.39c-0.2-0.11-0.42-0.22-0.67-0.35c-0.25-0.12-0.55-0.28-0.88-0.49c-0.66-0.28-1.4-0.59-2.24-0.93
		c-0.84-0.33-1.71-0.62-2.6-0.85c-0.74-0.19-1.46-0.34-2.16-0.44c-0.7-0.1-1.37-0.12-2.01-0.07c-1.43,0.07-2.6,0.47-3.52,1.18
		c-0.35,0.25-0.65,0.55-0.91,0.9c-0.26,0.35-0.48,0.76-0.66,1.22c-0.09,0.14-0.18,0.37-0.27,0.69c-0.14,0.53-0.21,1.11-0.21,1.76
		c0,0.65,0.16,1.3,0.5,1.95c0.28,0.64,0.78,1.25,1.5,1.83c0.72,0.58,1.76,1.06,3.13,1.42c0.42,0.11,0.74,0.17,0.97,0.17
		c1.49,0.34,2.89,0.25,4.2-0.24c0.61-0.18,1.16-0.44,1.64-0.79c0.49-0.35,0.93-0.75,1.33-1.21c0.84-0.84,1.51-1.77,1.99-2.76
		c0.49-0.99,0.85-1.94,1.08-2.83c-0.05-0.01-0.09-0.04-0.11-0.07C54.32,50.42,54.28,50.4,54.23,50.39z"/>
	<linearGradient id="SVGID_2_" gradientUnits="userSpaceOnUse" x1="50" y1="100" x2="50" y2="-9.094947e-13">
		<stop  offset="0" style="stop-color:#009245"/>
		<stop  offset="1" style="stop-color:#39B54A"/>
	</linearGradient>
	<path class="st1" d="M50,0C22.39,0,0,22.39,0,50c0,27.61,22.39,50,50,50c27.61,0,50-22.39,50-50C100,22.39,77.61,0,50,0z
		 M51.26,27.09c0.28,0.02,0.51,0.05,0.69,0.1c0.18,0.05,0.41,0.11,0.67,0.18c2.42,0.64,4.51,1.65,6.28,3.05
		c1.77,1.4,3.19,3.05,4.26,4.96c2.14,4.05,2.56,8.74,1.26,14.08l-0.17,0.63c-1.44,5.47-4.01,9.54-7.69,12.22
		c-1.81,1.32-3.81,2.26-6.01,2.8c-2.2,0.55-4.51,0.64-6.95,0.28c-0.33-0.03-0.65-0.09-0.97-0.17c-0.32-0.08-0.66-0.17-1.02-0.27
		c-1.1-0.29-2.24-0.69-3.4-1.19c-1.16-0.5-2.25-1.17-3.27-2c-1.08-0.79-2.03-1.7-2.82-2.73c-0.8-1.03-1.38-2.23-1.74-3.62
		c-0.6-1.79-0.63-3.79-0.1-6.02l0.12-0.47c0.54-2.05,1.41-3.65,2.61-4.79c1.1-1.17,2.54-2.06,4.33-2.65
		c1.65-0.52,3.43-0.77,5.34-0.74c1.9,0.03,3.83,0.29,5.78,0.81c2.73,0.72,5.23,1.8,7.5,3.24c0.27-1.67,0.31-3.21,0.12-4.61
		c-0.25-1.81-0.97-3.26-2.14-4.36c-0.46-0.4-0.97-0.75-1.54-1.04c-0.57-0.29-1.25-0.54-2.04-0.75l-0.87-0.23
		c-0.75-0.14-1.52-0.22-2.3-0.23c-0.79-0.01-1.58,0.02-2.38,0.09c-0.81,0.07-1.6,0.1-2.38,0.09c-0.79-0.01-1.52-0.1-2.2-0.28
		c-0.74-0.19-1.41-0.54-2-1.04c-0.53-0.53-0.93-1.28-1.18-2.25l-0.07-0.36l0.22-0.19c2.02-1.27,4.23-2.13,6.63-2.6
		C46.22,26.56,48.7,26.58,51.26,27.09z M20.47,29.33l1.1-6.04c0.38-2.07,1.19-3.68,2.44-4.81c1.25-1.13,2.74-1.93,4.47-2.38
		c1.74-0.45,3.62-0.63,5.66-0.53c2.04,0.1,4.04,0.33,6,0.68l3.8,0.69c0.14,0.7,0.08,1.31-0.17,1.84c-0.19,0.45-0.62,0.83-1.29,1.16
		c-0.67,0.33-1.69,0.41-3.05,0.26c-0.89-0.1-1.78-0.14-2.66-0.12c-0.88,0.02-1.7,0.17-2.45,0.47c-0.75,0.3-1.41,0.79-1.99,1.49
		c-0.58,0.69-0.99,1.69-1.23,2.99l-1.23,6.74c-0.17,0.93-0.29,1.68-0.37,2.26c-0.08,0.58-0.12,1.04-0.13,1.39
		c-0.02,0.38-0.02,0.67,0,0.86c-3.15-0.57-5.51-1.41-7.07-2.51C20.74,32.67,20.13,31.19,20.47,29.33z M85.33,53.01
		c-0.7,4.39-2.38,8.69-5.03,12.89c-2.65,4.2-6.44,7.99-11.38,11.36c-4.94,3.38-9.85,5.54-14.72,6.48
		c-4.87,0.94-9.48,0.95-13.83,0.01c-4.35-0.94-8.34-2.72-11.99-5.33c-3.64-2.62-6.73-5.78-9.26-9.48c-1.61-2.36-2.76-4.62-3.46-6.78
		c-0.69-2.16-1.13-4.15-1.3-5.97c-0.17-1.82-0.15-3.38,0.07-4.68c0.22-1.3,0.46-2.25,0.72-2.84c0.45-0.06,0.9-0.08,1.33-0.04
		c0.4-0.02,0.81,0,1.23,0.09c0.43,0.08,0.79,0.22,1.09,0.43c0.82,0.35,1.49,0.92,2.03,1.7c0.54,0.79,0.91,1.6,1.12,2.45
		c0.21,0.85,0.45,1.77,0.73,2.78c0.28,1.01,0.67,2.16,1.19,3.45c0.52,1.3,1.35,2.79,2.5,4.47c1.5,2.19,3.41,4.03,5.75,5.52
		c2.34,1.49,5.01,2.45,8.01,2.86c3,0.42,6.3,0.14,9.88-0.82c3.58-0.97,7.34-2.79,11.27-5.48c3.99-2.72,7.06-5.57,9.24-8.54
		c2.17-2.97,3.62-5.94,4.35-8.91c0.73-2.97,0.82-5.81,0.28-8.53c-0.54-2.72-1.56-5.17-3.05-7.36c-1.15-1.68-2.24-3-3.26-3.95
		c-1.02-0.95-1.95-1.74-2.79-2.36c-0.84-0.62-1.61-1.18-2.33-1.68c-0.71-0.5-1.34-1.14-1.87-1.93c-0.54-0.79-0.82-1.62-0.85-2.51
		c0.03-0.92,0.15-1.71,0.37-2.35c0.13-0.42,0.3-0.82,0.52-1.22c0.7-0.06,1.69,0.04,2.99,0.3c1.29,0.27,2.74,0.82,4.35,1.66
		c1.61,0.84,3.29,1.98,5.05,3.41c1.76,1.43,3.45,3.33,5.06,5.68c2.53,3.7,4.34,7.74,5.43,12.1C85.85,44.24,86.04,48.62,85.33,53.01z
		"/>
</g>
</svg>
