<?xml version="1.0" encoding="utf-8"?>
<!-- Generator: Adobe Illustrator 23.0.1, SVG Export Plug-In . SVG Version: 6.00 Build 0)  -->
<svg version="1.1" id="Layer_1" xmlns="http://www.w3.org/2000/svg" xmlns:xlink="http://www.w3.org/1999/xlink" x="0px" y="0px"
	 viewBox="0 0 288 72" style="enable-background:new 0 0 288 72;" xml:space="preserve">
<style type="text/css">
	.st0{fill:url(#SVGID_1_);}
	.st1{fill:url(#SVGID_2_);}
	.st2{fill:url(#SVGID_3_);}
	.st3{fill:url(#SVGID_4_);}
	.st4{fill:url(#SVGID_5_);}
	.st5{fill:url(#SVGID_6_);}
	.st6{fill:url(#SVGID_7_);}
	.st7{fill:url(#SVGID_8_);}
	.st8{fill:url(#SVGID_9_);}
	.st9{fill:url(#SVGID_10_);}
	.st10{fill:url(#SVGID_11_);}
	.st11{fill:#808080;}
	.st12{fill:#009245;}
	.st13{fill:#39B54A;}
</style>
<g>
	<g>
		<g>
			<linearGradient id="SVGID_1_" gradientUnits="userSpaceOnUse" x1="44.0204" y1="40.6508" x2="44.0204" y2="34.4986">
				<stop  offset="0" style="stop-color:#009245"/>
				<stop  offset="1" style="stop-color:#39B54A"/>
			</linearGradient>
			<path class="st0" d="M48.34,36.21c-0.11-0.06-0.23-0.12-0.36-0.19c-0.14-0.07-0.3-0.15-0.48-0.26c-0.36-0.15-0.76-0.32-1.22-0.5
				c-0.46-0.18-0.93-0.34-1.41-0.46c-0.4-0.11-0.79-0.19-1.17-0.24c-0.38-0.05-0.75-0.07-1.09-0.04c-0.77,0.04-1.41,0.25-1.91,0.64
				c-0.19,0.13-0.35,0.3-0.49,0.49c-0.14,0.19-0.26,0.41-0.36,0.66c-0.05,0.08-0.1,0.2-0.14,0.37c-0.08,0.29-0.11,0.6-0.11,0.95
				c0,0.35,0.09,0.7,0.27,1.06c0.15,0.34,0.42,0.68,0.81,0.99c0.39,0.32,0.95,0.57,1.7,0.77c0.23,0.06,0.4,0.09,0.52,0.09
				c0.81,0.18,1.57,0.14,2.28-0.13c0.33-0.1,0.63-0.24,0.89-0.43c0.26-0.19,0.5-0.41,0.72-0.66c0.46-0.46,0.82-0.96,1.08-1.5
				c0.26-0.54,0.46-1.05,0.59-1.54c-0.03-0.01-0.05-0.02-0.06-0.04C48.38,36.23,48.36,36.22,48.34,36.21z"/>
			<linearGradient id="SVGID_2_" gradientUnits="userSpaceOnUse" x1="46.0424" y1="63.1301" x2="46.0424" y2="8.8699">
				<stop  offset="0" style="stop-color:#009245"/>
				<stop  offset="1" style="stop-color:#39B54A"/>
			</linearGradient>
			<path class="st1" d="M46.04,8.87C31.06,8.87,18.91,21.02,18.91,36c0,14.98,12.15,27.13,27.13,27.13
				c14.98,0,27.13-12.15,27.13-27.13C73.17,21.02,61.03,8.87,46.04,8.87z M46.73,23.57c0.15,0.01,0.27,0.03,0.38,0.05
				c0.1,0.03,0.22,0.06,0.36,0.1c1.31,0.35,2.45,0.9,3.41,1.65c0.96,0.76,1.73,1.65,2.31,2.69c1.16,2.2,1.39,4.74,0.69,7.64
				l-0.09,0.34c-0.78,2.97-2.17,5.18-4.17,6.63c-0.98,0.72-2.07,1.22-3.26,1.52c-1.19,0.3-2.45,0.35-3.77,0.15
				c-0.18-0.02-0.35-0.05-0.52-0.09c-0.17-0.05-0.36-0.09-0.56-0.15c-0.6-0.16-1.21-0.37-1.84-0.65c-0.63-0.27-1.22-0.63-1.77-1.09
				c-0.59-0.43-1.1-0.92-1.53-1.48c-0.43-0.56-0.75-1.21-0.95-1.97c-0.32-0.97-0.34-2.06-0.05-3.26l0.07-0.26
				c0.29-1.11,0.77-1.98,1.42-2.6c0.59-0.64,1.38-1.12,2.35-1.44c0.9-0.28,1.86-0.42,2.9-0.4c1.03,0.01,2.08,0.16,3.13,0.44
				c1.48,0.39,2.84,0.98,4.07,1.76c0.15-0.91,0.17-1.74,0.06-2.5c-0.14-0.98-0.53-1.77-1.16-2.37c-0.25-0.22-0.53-0.41-0.84-0.56
				c-0.31-0.16-0.68-0.29-1.11-0.41l-0.47-0.12c-0.41-0.08-0.82-0.12-1.25-0.12c-0.43-0.01-0.86,0.01-1.29,0.05
				c-0.44,0.04-0.87,0.05-1.29,0.05c-0.43,0-0.82-0.06-1.19-0.15c-0.4-0.11-0.76-0.29-1.09-0.56c-0.29-0.29-0.5-0.7-0.64-1.22
				l-0.04-0.19l0.12-0.11c1.1-0.69,2.3-1.16,3.6-1.41C43.99,23.28,45.34,23.29,46.73,23.57z M30.02,24.79l0.6-3.28
				c0.2-1.13,0.65-2,1.32-2.61c0.68-0.61,1.49-1.04,2.43-1.29c0.94-0.25,1.97-0.34,3.07-0.29c1.1,0.05,2.19,0.18,3.25,0.37
				l2.06,0.37c0.08,0.38,0.04,0.71-0.09,1c-0.1,0.24-0.34,0.45-0.7,0.63c-0.37,0.18-0.92,0.22-1.65,0.14
				c-0.48-0.05-0.96-0.08-1.44-0.07c-0.48,0.01-0.92,0.09-1.33,0.25c-0.41,0.16-0.77,0.43-1.08,0.81c-0.32,0.38-0.54,0.92-0.66,1.62
				l-0.67,3.65c-0.09,0.5-0.16,0.91-0.2,1.23c-0.04,0.31-0.07,0.56-0.07,0.76c-0.01,0.21-0.01,0.36,0,0.47
				c-1.71-0.31-2.99-0.77-3.83-1.36C30.17,26.6,29.84,25.79,30.02,24.79z M65.21,37.63c-0.38,2.38-1.29,4.71-2.73,6.99
				c-1.44,2.28-3.49,4.33-6.17,6.17c-2.68,1.83-5.34,3.01-7.99,3.52c-2.64,0.51-5.15,0.51-7.51,0c-2.36-0.51-4.53-1.47-6.5-2.89
				c-1.98-1.42-3.65-3.13-5.03-5.14c-0.87-1.28-1.5-2.5-1.88-3.68c-0.38-1.17-0.61-2.25-0.71-3.24c-0.09-0.99-0.08-1.83,0.04-2.54
				c0.12-0.71,0.25-1.22,0.39-1.54c0.25-0.03,0.49-0.04,0.72-0.02c0.22-0.01,0.44,0,0.67,0.05c0.23,0.04,0.43,0.12,0.59,0.23
				c0.44,0.19,0.81,0.5,1.1,0.92c0.29,0.43,0.49,0.87,0.61,1.33c0.11,0.46,0.24,0.96,0.39,1.51c0.15,0.55,0.36,1.17,0.64,1.87
				c0.28,0.7,0.73,1.51,1.36,2.43c0.81,1.19,1.85,2.19,3.12,2.99c1.27,0.81,2.72,1.33,4.35,1.55c1.63,0.23,3.42,0.08,5.36-0.45
				c1.94-0.52,3.98-1.51,6.11-2.97c2.16-1.48,3.83-3.02,5.01-4.63c1.18-1.61,1.97-3.22,2.36-4.83c0.4-1.61,0.45-3.15,0.15-4.63
				c-0.29-1.47-0.85-2.81-1.66-3.99c-0.62-0.91-1.21-1.63-1.77-2.14c-0.55-0.51-1.06-0.94-1.51-1.28c-0.45-0.34-0.87-0.64-1.26-0.91
				c-0.39-0.27-0.73-0.62-1.02-1.05c-0.29-0.43-0.44-0.88-0.46-1.36c0.01-0.5,0.08-0.93,0.2-1.28c0.07-0.23,0.16-0.45,0.28-0.66
				c0.38-0.03,0.92,0.02,1.62,0.17c0.7,0.15,1.49,0.45,2.36,0.9c0.87,0.46,1.78,1.07,2.74,1.85c0.96,0.78,1.87,1.8,2.75,3.08
				c1.37,2.01,2.36,4.2,2.95,6.57C65.49,32.88,65.6,35.25,65.21,37.63z"/>
		</g>
		<g>
			<linearGradient id="SVGID_3_" gradientUnits="userSpaceOnUse" x1="94.8749" y1="57.641" x2="94.8749" y2="18.4861">
				<stop  offset="0" style="stop-color:#009245"/>
				<stop  offset="1" style="stop-color:#39B54A"/>
			</linearGradient>
			<path class="st2" d="M99.17,57.64c-2.41,0-4.75-0.42-7.01-1.26c-2.26-0.84-4.26-2.08-6-3.72c-1.73-1.64-3.13-3.69-4.19-6.13
				c-1.06-2.45-1.59-5.27-1.59-8.49s0.53-6.04,1.59-8.49c1.06-2.45,2.45-4.49,4.19-6.13c1.73-1.64,3.73-2.88,6-3.7
				c2.26-0.82,4.6-1.23,7.01-1.23c1.53,0,2.88,0.17,4.05,0.52c1.17,0.35,2.18,0.76,3.04,1.23c0.86,0.47,1.54,0.96,2.05,1.45
				c0.51,0.49,0.86,0.89,1.04,1.18c-0.11,0.22-0.24,0.42-0.38,0.6c-0.11,0.18-0.25,0.36-0.41,0.52c-0.16,0.16-0.34,0.28-0.52,0.36
				c-0.4,0.26-0.86,0.38-1.37,0.38c-0.51,0-0.99-0.08-1.42-0.25c-0.44-0.16-0.92-0.34-1.45-0.52c-0.53-0.18-1.16-0.36-1.89-0.52
				c-0.73-0.16-1.64-0.25-2.74-0.25c-1.42,0-2.82,0.29-4.19,0.88c-1.37,0.58-2.6,1.48-3.7,2.68c-1.1,1.2-1.97,2.75-2.63,4.63
				s-0.99,4.1-0.99,6.65c0,2.59,0.33,4.82,0.99,6.68c0.66,1.86,1.53,3.4,2.63,4.63c1.09,1.22,2.33,2.13,3.7,2.71
				c1.37,0.58,2.77,0.88,4.19,0.88c1.1,0,2.01-0.08,2.74-0.25c0.73-0.16,1.36-0.34,1.89-0.52c0.53-0.18,1.01-0.36,1.45-0.52
				c0.44-0.16,0.91-0.25,1.42-0.25c0.51,0,0.97,0.13,1.37,0.38c0.4,0.29,0.71,0.58,0.93,0.88c0.15,0.18,0.27,0.38,0.38,0.6
				c-0.18,0.33-0.53,0.74-1.04,1.23c-0.51,0.49-1.2,0.97-2.05,1.42c-0.86,0.46-1.87,0.86-3.04,1.2
				C102.06,57.47,100.71,57.64,99.17,57.64z"/>
			<linearGradient id="SVGID_4_" gradientUnits="userSpaceOnUse" x1="121.5439" y1="57.641" x2="121.5439" y2="31.3555">
				<stop  offset="0" style="stop-color:#009245"/>
				<stop  offset="1" style="stop-color:#39B54A"/>
			</linearGradient>
			<path class="st3" d="M113.68,43.13c0.99-0.62,2.1-1.09,3.34-1.4c1.24-0.31,2.54-0.47,3.89-0.47c1.9,0,3.71,0.27,5.42,0.82
				c-0.11-1.13-0.35-2.13-0.71-3.01c-0.47-1.13-1.19-1.95-2.14-2.46c-0.37-0.18-0.76-0.32-1.18-0.41c-0.42-0.09-0.9-0.14-1.45-0.14
				h-0.6c-0.51,0.04-1.02,0.12-1.53,0.25c-0.51,0.13-1.02,0.28-1.53,0.47c-0.51,0.18-1.02,0.34-1.53,0.46
				c-0.51,0.13-1,0.19-1.48,0.19c-0.51,0-1-0.11-1.48-0.33c-0.44-0.25-0.82-0.68-1.15-1.26l-0.11-0.22l0.11-0.16
				c1.1-1.17,2.38-2.11,3.86-2.82c1.48-0.71,3.09-1.12,4.85-1.23c0.18-0.04,0.34-0.05,0.47-0.05c0.13,0,0.28,0,0.47,0
				c1.68,0,3.21,0.3,4.6,0.9c1.39,0.6,2.59,1.43,3.61,2.49c2.08,2.26,3.16,5.24,3.23,8.93v0.44c0,3.8-0.97,6.88-2.9,9.25
				c-0.95,1.17-2.09,2.12-3.42,2.85c-1.33,0.73-2.82,1.19-4.46,1.37c-0.22,0.04-0.44,0.05-0.66,0.05c-0.22,0-0.46,0-0.71,0
				c-0.77,0-1.57-0.06-2.41-0.19c-0.84-0.13-1.66-0.37-2.46-0.74c-0.84-0.33-1.61-0.76-2.3-1.29c-0.69-0.53-1.28-1.21-1.75-2.05
				c-0.69-1.06-1.06-2.35-1.09-3.89v-0.33c0-1.42,0.29-2.61,0.88-3.56C111.84,44.64,112.63,43.82,113.68,43.13z M125.02,45.76
				c-0.47-0.07-1.01-0.14-1.62-0.22s-1.21-0.11-1.83-0.11c-0.51,0-1,0.03-1.48,0.08c-0.47,0.05-0.91,0.16-1.31,0.3
				c-0.91,0.29-1.61,0.75-2.08,1.37c-0.18,0.22-0.33,0.47-0.44,0.74c-0.11,0.27-0.18,0.58-0.22,0.9c-0.04,0.11-0.05,0.27-0.05,0.49
				c0,0.37,0.05,0.76,0.16,1.18c0.11,0.42,0.33,0.81,0.66,1.18c0.29,0.36,0.72,0.68,1.29,0.93c0.57,0.26,1.32,0.38,2.27,0.38
				c0.29,0,0.51-0.02,0.66-0.05c1.02-0.04,1.92-0.33,2.68-0.88c0.36-0.22,0.68-0.48,0.93-0.79c0.26-0.31,0.47-0.65,0.66-1.01
				c0.4-0.69,0.68-1.4,0.82-2.14c0.14-0.73,0.22-1.4,0.22-2.03c-0.04,0-0.06-0.01-0.08-0.03c-0.02-0.02-0.05-0.03-0.08-0.03
				c-0.15-0.04-0.31-0.07-0.49-0.11C125.5,45.89,125.28,45.83,125.02,45.76z"/>
			<linearGradient id="SVGID_5_" gradientUnits="userSpaceOnUse" x1="142.9859" y1="57.0936" x2="142.9859" y2="32.0127">
				<stop  offset="0" style="stop-color:#009245"/>
				<stop  offset="1" style="stop-color:#39B54A"/>
			</linearGradient>
			<path class="st4" d="M135.64,43.9c0-2.44,0.36-4.44,1.07-6c0.71-1.55,1.63-2.77,2.77-3.64c1.13-0.88,2.4-1.47,3.81-1.78
				c1.41-0.31,2.8-0.47,4.19-0.47h2.68c0.18,0.77,0.22,1.48,0.11,2.14c-0.07,0.55-0.32,1.08-0.74,1.59
				c-0.42,0.51-1.1,0.82-2.05,0.93c-0.62,0.07-1.23,0.21-1.83,0.41s-1.14,0.55-1.62,1.04c-0.47,0.49-0.87,1.2-1.18,2.11
				c-0.31,0.91-0.47,2.14-0.47,3.67v7.94c0,1.1,0.01,1.98,0.03,2.66c0.02,0.68,0.05,1.21,0.08,1.62c0.04,0.44,0.07,0.77,0.11,0.99
				c-2.23,0-3.94-0.47-5.15-1.4c-1.2-0.93-1.81-2.49-1.81-4.68V43.9z"/>
			<linearGradient id="SVGID_6_" gradientUnits="userSpaceOnUse" x1="164.2566" y1="57.641" x2="164.2566" y2="19.0336">
				<stop  offset="0" style="stop-color:#009245"/>
				<stop  offset="1" style="stop-color:#39B54A"/>
			</linearGradient>
			<path class="st5" d="M158.7,32.67c1.61-0.84,3.45-1.26,5.53-1.26c1.72,0,3.31,0.35,4.79,1.04c1.48,0.69,2.77,1.62,3.86,2.79
				c1.13,1.2,2.02,2.59,2.66,4.16c0.64,1.57,0.96,3.29,0.96,5.15c0,1.79-0.29,3.48-0.88,5.07c-0.58,1.59-1.41,2.98-2.46,4.19
				c-1.06,1.17-2.35,2.1-3.86,2.79c-1.51,0.69-3.2,1.04-5.07,1.04c-1.72,0-3.31-0.35-4.79-1.04c-1.48-0.69-2.77-1.62-3.86-2.79
				c-1.1-1.17-1.96-2.55-2.6-4.13c-0.64-1.59-0.96-3.29-0.96-5.12V25.11c0-2.19,0.59-3.75,1.78-4.68s2.91-1.4,5.18-1.4
				c-0.04,0.22-0.07,0.55-0.11,0.99c-0.04,0.4-0.06,0.95-0.08,1.64c-0.02,0.69-0.03,1.59-0.03,2.68c0,0.33,0,0.9,0,1.73
				c0,0.82-0.01,1.69-0.03,2.6c-0.02,0.91-0.03,1.75-0.03,2.52C158.7,31.96,158.7,32.45,158.7,32.67z M164.23,52.93
				c0.47,0,1.03-0.11,1.67-0.33c0.64-0.22,1.25-0.63,1.83-1.23s1.08-1.46,1.48-2.57c0.4-1.11,0.6-2.55,0.6-4.3
				c0-1.75-0.2-3.18-0.6-4.3c-0.4-1.11-0.9-1.97-1.48-2.57s-1.2-1.01-1.83-1.23c-0.64-0.22-1.2-0.33-1.67-0.33
				c-0.47,0-1.03,0.11-1.67,0.33c-0.64,0.22-1.25,0.63-1.83,1.23c-0.58,0.6-1.08,1.46-1.48,2.57c-0.4,1.11-0.6,2.55-0.6,4.3
				c0,1.75,0.2,3.19,0.6,4.3c0.4,1.11,0.89,1.97,1.48,2.57c0.58,0.6,1.2,1.01,1.83,1.23C163.2,52.82,163.75,52.93,164.23,52.93z"/>
			<linearGradient id="SVGID_7_" gradientUnits="userSpaceOnUse" x1="191.4731" y1="57.6959" x2="191.4731" y2="31.4104">
				<stop  offset="0" style="stop-color:#009245"/>
				<stop  offset="1" style="stop-color:#39B54A"/>
			</linearGradient>
			<path class="st6" d="M200.1,35.3c1.13,1.17,2.02,2.55,2.66,4.13c0.64,1.59,0.96,3.29,0.96,5.12c0,1.83-0.29,3.53-0.88,5.12
				c-0.58,1.59-1.41,2.97-2.46,4.13c-1.06,1.2-2.35,2.15-3.86,2.85c-1.51,0.69-3.2,1.04-5.07,1.04c-1.68,0-3.26-0.35-4.74-1.04
				c-1.48-0.69-2.78-1.64-3.92-2.85c-1.09-1.17-1.96-2.55-2.6-4.13c-0.64-1.59-0.96-3.29-0.96-5.12c0-1.83,0.28-3.53,0.85-5.12
				c0.57-1.59,1.38-2.97,2.44-4.13c1.06-1.2,2.35-2.15,3.86-2.85c1.51-0.69,3.2-1.04,5.07-1.04c1.72,0,3.31,0.35,4.79,1.04
				C197.72,33.14,199,34.09,200.1,35.3z M191.45,52.99c0.47,0,1.03-0.11,1.67-0.33c0.64-0.22,1.25-0.64,1.83-1.26
				c0.58-0.62,1.08-1.48,1.48-2.57c0.4-1.09,0.6-2.52,0.6-4.27c0-1.75-0.2-3.18-0.6-4.3c-0.4-1.11-0.9-1.97-1.48-2.57
				s-1.2-1.01-1.83-1.23c-0.64-0.22-1.2-0.33-1.67-0.33c-0.47,0-1.03,0.11-1.67,0.33c-0.64,0.22-1.25,0.63-1.83,1.23
				c-0.58,0.6-1.08,1.46-1.48,2.57c-0.4,1.11-0.6,2.55-0.6,4.3c0,1.75,0.2,3.18,0.6,4.27c0.4,1.1,0.89,1.95,1.48,2.57
				c0.58,0.62,1.2,1.04,1.83,1.26C190.41,52.88,190.97,52.99,191.45,52.99z"/>
			<linearGradient id="SVGID_8_" gradientUnits="userSpaceOnUse" x1="218.7444" y1="57.0936" x2="218.7444" y2="31.4104">
				<stop  offset="0" style="stop-color:#009245"/>
				<stop  offset="1" style="stop-color:#39B54A"/>
			</linearGradient>
			<path class="st7" d="M206.78,43.29c0-2.44,0.36-4.44,1.07-6c0.71-1.55,1.62-2.77,2.74-3.64c1.11-0.88,2.37-1.47,3.78-1.78
				c1.41-0.31,2.82-0.47,4.24-0.47c1.39,0,2.79,0.16,4.22,0.47c1.42,0.31,2.71,0.9,3.86,1.78c1.15,0.88,2.08,2.09,2.79,3.64
				c0.71,1.55,1.07,3.55,1.07,6l0.22,13.8c-2.23,0-3.94-0.47-5.15-1.42c-1.2-0.95-1.81-2.5-1.81-4.65l0.05-7.72
				c0-1.53-0.16-2.77-0.47-3.7c-0.31-0.93-0.72-1.66-1.23-2.19c-0.51-0.53-1.08-0.89-1.7-1.07c-0.62-0.18-1.24-0.27-1.86-0.27
				c-0.62,0-1.23,0.09-1.83,0.27c-0.6,0.18-1.15,0.54-1.64,1.07c-0.49,0.53-0.9,1.26-1.2,2.19c-0.31,0.93-0.47,2.16-0.47,3.7v8.49
				c0.04,1.09,0.06,1.99,0.08,2.68c0.02,0.69,0.05,1.24,0.08,1.64c0.04,0.44,0.07,0.77,0.11,0.99c-2.26,0-4-0.47-5.2-1.42
				c-1.2-0.95-1.81-2.5-1.81-4.65L206.78,43.29z"/>
			<linearGradient id="SVGID_9_" gradientUnits="userSpaceOnUse" x1="239.814" y1="57.6805" x2="239.814" y2="31.9578">
				<stop  offset="0" style="stop-color:#009245"/>
				<stop  offset="1" style="stop-color:#39B54A"/>
			</linearGradient>
			<path class="st8" d="M245.11,52.17c-0.18,0.26-0.49,0.47-0.93,0.63c-0.44,0.16-0.88,0.21-1.31,0.14
				c-0.44-0.07-0.82-0.3-1.15-0.69c-0.33-0.38-0.49-1.01-0.49-1.89V37.27c0-1.09,0.01-1.98,0.03-2.66c0.02-0.68,0.05-1.21,0.08-1.62
				c0.04-0.44,0.07-0.78,0.11-1.04c-2.26,0-3.98,0.47-5.15,1.42c-1.17,0.95-1.75,2.52-1.75,4.71l-0.05,12.92
				c0,0.91,0.14,1.79,0.41,2.63s0.69,1.57,1.26,2.19c0.57,0.62,1.27,1.1,2.11,1.45c0.84,0.35,1.83,0.47,2.96,0.36
				c1.17-0.07,2.03-0.41,2.57-1.01c0.55-0.6,0.91-1.23,1.09-1.89C245.11,53.97,245.19,53.12,245.11,52.17z"/>
			<linearGradient id="SVGID_10_" gradientUnits="userSpaceOnUse" x1="257.5707" y1="57.641" x2="257.5707" y2="31.4104">
				<stop  offset="0" style="stop-color:#009245"/>
				<stop  offset="1" style="stop-color:#39B54A"/>
			</linearGradient>
			<path class="st9" d="M258.75,36.07c-0.47,0-1.03,0.11-1.67,0.33c-0.64,0.22-1.25,0.63-1.83,1.23c-0.58,0.6-1.08,1.46-1.48,2.57
				c-0.4,1.11-0.6,2.55-0.6,4.3c0,1.75,0.2,3.19,0.6,4.3c0.4,1.11,0.89,1.97,1.48,2.57c0.58,0.6,1.2,1.01,1.83,1.23
				c0.64,0.22,1.2,0.33,1.67,0.33c0.77,0,1.5-0.07,2.19-0.22c0.69-0.14,1.31-0.31,1.86-0.49c0.55-0.22,1.07-0.41,1.56-0.58
				c0.49-0.16,0.98-0.25,1.45-0.25c0.47,0,0.95,0.13,1.42,0.38c0.4,0.25,0.82,0.68,1.26,1.26l0.11,0.22l-0.16,0.16
				c-1.2,1.31-2.64,2.35-4.3,3.09c-1.66,0.75-3.44,1.12-5.34,1.12c-1.72,0-3.31-0.35-4.79-1.04c-1.48-0.69-2.78-1.62-3.92-2.79
				c-1.09-1.17-1.96-2.55-2.6-4.13c-0.64-1.59-0.96-3.29-0.96-5.12c0-1.83,0.29-3.53,0.88-5.12c0.58-1.59,1.41-2.98,2.46-4.19
				c1.06-1.17,2.34-2.1,3.83-2.79c1.5-0.69,3.18-1.04,5.04-1.04c1.93,0,3.73,0.37,5.39,1.12c1.66,0.75,3.09,1.78,4.3,3.09l0.16,0.16
				l-0.16,0.22c-0.4,0.66-0.82,1.08-1.26,1.26c-0.47,0.29-0.93,0.42-1.37,0.38c-0.47,0-0.96-0.08-1.45-0.25
				c-0.49-0.16-1.01-0.34-1.56-0.52c-0.55-0.22-1.17-0.41-1.86-0.57C260.24,36.15,259.51,36.07,258.75,36.07z"/>
			<linearGradient id="SVGID_11_" gradientUnits="userSpaceOnUse" x1="233.6429" y1="21.7124" x2="244.417" y2="21.7124">
				<stop  offset="0" style="stop-color:#009245"/>
				<stop  offset="1" style="stop-color:#39B54A"/>
			</linearGradient>
			<path class="st10" d="M241.06,26.62c-2.04,1.31-3.43,2.1-4.4,2.5c0.35-4.76,3.23-8.18,3.42-8.4c-1.72,1.03-4.64,4.69-6.24,6.8
				c-0.05-0.13-0.1-0.28-0.16-0.42c0,0-0.98-5.91,8.4-12.8C242.07,14.3,247.97,22.2,241.06,26.62z"/>
		</g>
	</g>
	<g>
		<g>
			<path class="st11" d="M264.16,15.48h1.4c0.97,0,1.41,0.54,1.41,1.27c0,0.55-0.25,0.98-0.78,1.16l0.94,1.72h-0.58l-0.88-1.63
				c-0.03,0-0.07,0-0.11,0h-0.91v1.62h-0.5V15.48z M265.56,17.56c0.67,0,0.93-0.3,0.93-0.8c0-0.5-0.26-0.83-0.93-0.83h-0.88v1.63
				H265.56z"/>
		</g>
		<path class="st11" d="M265.65,21c-1.9,0-3.44-1.54-3.44-3.44s1.54-3.44,3.44-3.44c1.9,0,3.44,1.54,3.44,3.44S267.55,21,265.65,21z
			 M265.65,14.45c-1.72,0-3.11,1.4-3.11,3.11s1.4,3.11,3.11,3.11c1.72,0,3.11-1.4,3.11-3.11S267.36,14.45,265.65,14.45z"/>
	</g>
</g>
</svg>
